<?xml version="1.0" encoding="utf-8"?>
<!DOCTYPE svg PUBLIC "-//W3C//DTD SVG 1.1//EN" "http://www.w3.org/Graphics/SVG/1.1/DTD/svg11.dtd">
<svg version="1.1" xmlns="http://www.w3.org/2000/svg" xmlns:xlink="http://www.w3.org/1999/xlink" x="0px" y="0px" width="32px"
	 height="32px" viewBox="0 0 32 32" enable-background="new 0 0 32 32" xml:space="preserve">
<g id="Layer_3">
	<rect width="32" height="32"/>
</g>
<g id="Layer_1">
	<path fill="#FFFFFF" d="M20.784,20.926c-0.291,0.085-0.524,0.117-0.829,0.117c-2.494,0-6.16-8.722-6.16-11.625
		c0-1.068,0.253-1.426,0.609-1.731c-3.054,0.357-6.719,1.478-7.891,2.903c-0.253,0.357-0.408,0.917-0.408,1.63
		c0,4.531,4.837,14.814,8.249,14.814C15.934,27.032,18.594,24.438,20.784,20.926"/>
	<path fill="#FFFFFF" d="M19.191,7.383c3.155,0,6.315,0.51,6.315,2.291c0,3.615-2.293,7.995-3.463,7.995
		c-2.089,0-4.687-5.806-4.687-8.708C17.357,7.637,17.868,7.383,19.191,7.383"/>
</g>
</svg>
